<?xml version="1.0" encoding="iso-8859-1"?>
<!-- Generator: Adobe Illustrator 19.0.0, SVG Export Plug-In . SVG Version: 6.00 Build 0)  -->
<svg version="1.1" id="Capa_1" xmlns="http://www.w3.org/2000/svg" xmlns:xlink="http://www.w3.org/1999/xlink" x="0px" y="0px"
	 viewBox="0 0 496 496" style="enable-background:new 0 0 496 496;" xml:space="preserve">
<g>
	<g>
		<g>
			<path d="M416,327.44V280c0-22.056-17.944-40-40-40h-24v16h24c13.232,0,24,10.768,24,24h-48v16h48v25.544l-80-23.528V288h-16
				v12.688l-56,56l-56-56V288h-16v10.016l-80,23.528V296h48v-16H96c0-13.232,10.768-24,24-24h24v-16h-24c-22.056,0-40,17.944-40,40
				v47.44c-24.04,12.016-40,36.976-40,64.448V496h168h8h64h8h168V391.888C456,364.416,440.04,339.456,416,327.44z M222.432,353.752
				c-9.496,2.264-18.32,6.696-25.728,13.008l-9.688-48.416L222.432,353.752z M56,391.888c0-24.672,16.528-46.768,40.2-53.736
				l15.376-4.52L104.552,432H56V391.888z M56,480v-32h104c19.32,0,35.48,13.768,39.192,32H56z M240,480h-24.64
				c-3.536-24.56-23.032-43.984-47.632-47.4l6.056-88.048l-15.96-1.096L151.728,432h-31.136l7.368-103.184l42.352-12.456
				l17.624,88.144l10.712-16.072c8.504-12.752,22.72-20.376,38.04-20.432l3.312,3.312V480z M308.976,318.336l-9.688,48.416
				c-7.408-6.32-16.232-10.744-25.728-13.008L308.976,318.336z M280.64,480H256V371.312l3.304-3.304
				c15.32,0.048,29.536,7.672,38.04,20.432l10.712,16.072l17.624-88.144l42.352,12.456L375.408,432h-32.072l-6.088-88.544
				l-15.96,1.096l6.064,88.192C303.184,436.512,284.136,455.744,280.64,480z M440,480H296.808c3.712-18.232,19.88-32,39.192-32h104
				V480z M440,432h-48.552l-7.024-98.368l15.376,4.52c23.672,6.976,40.2,29.064,40.2,53.736V432z"/>
			<path d="M147.536,215.552c4.08,14.04,11.616,26.912,22.24,37.536l31.2,31.192c7.552,7.552,17.6,11.72,28.28,11.72h37.496
				c10.68,0,20.728-4.168,28.28-11.72l31.2-31.192c10.624-10.624,18.16-23.496,22.24-37.536C368.4,213.296,384,196.528,384,176
				c0-13.128-6.448-24.704-16.248-32H368v-24C368,53.832,314.168,0,248,0S128,53.832,128,120v24h0.248
				c-9.8,7.296-16.248,18.872-16.248,32C112,196.528,127.6,213.296,147.536,215.552z M224,152v24c0,4.416-3.592,8-8,8h-48
				c-4.408,0-8-3.584-8-8v-24H224z M210.56,136c14.168-8.224,26.744-19.256,36.504-32.92l0.936-1.312l0.936,1.312
				c9.76,13.664,22.336,24.696,36.504,32.92H264h-8h-16h-8H210.56z M314.912,241.776l-31.2,31.192
				c-4.464,4.472-10.648,7.032-16.968,7.032h-37.496c-6.32,0-12.496-2.56-16.968-7.032l-31.2-31.192
				c-11.736-11.744-18.896-26.832-20.64-43.112c2.392,0.8,4.904,1.336,7.56,1.336h48c13.232,0,24-10.768,24-24v-24h16v24
				c0,13.232,10.768,24,24,24h48c2.656,0,5.168-0.536,7.552-1.336C333.808,214.944,326.656,230.032,314.912,241.776z M336,176
				c0,4.416-3.592,8-8,8h-48c-4.408,0-8-3.584-8-8v-24h64V176z M368,176c0,10.552-6.896,19.44-16.376,22.64
				c0.224-2.576,0.376-5.16,0.376-7.784V176v-22.528C361.288,156.784,368,165.584,368,176z M144,120c0-57.344,46.656-104,104-104
				s104,46.656,104,104v16h-8c-32.488,0-63.16-15.784-82.04-42.216L248,74.232l-13.96,19.544C215.16,120.216,184.488,136,152,136h-8
				V120z M144,153.472V176v14.856c0,2.616,0.152,5.208,0.376,7.784C134.896,195.44,128,186.552,128,176
				C128,165.584,134.712,156.784,144,153.472z"/>
			<rect x="272" y="392" width="16" height="16"/>
		</g>
	</g>
</g>
<g>
</g>
<g>
</g>
<g>
</g>
<g>
</g>
<g>
</g>
<g>
</g>
<g>
</g>
<g>
</g>
<g>
</g>
<g>
</g>
<g>
</g>
<g>
</g>
<g>
</g>
<g>
</g>
<g>
</g>
</svg>
